<svg width="1058" height="475" viewBox="0 0 1058 475" fill="none" xmlns="http://www.w3.org/2000/svg">
<rect width="1058" height="475" fill="#E5E5E5"/>
<path d="M162 342.04C56.4 356.44 -12 409.373 -33 434.04L-28 570.04L191 616.04L1048 512.04L1058 401.04C1017.67 418.706 913.6 437.64 820 372.04C726.4 306.44 651 314.04 625 326.04C560.333 344.373 417.2 377.24 362 362.04C293 343.04 294 324.04 162 342.04Z" fill="white" fill-opacity="0.7" stroke="black"/>
<path d="M173 318C67.4 332.4 -1 385.333 -22 410L-17 546L202 592L1059 488L1069 377C1028.67 394.667 924.6 413.6 831 348C737.4 282.4 662 290 636 302C571.333 320.333 428.2 353.2 373 338C304 319 305 300 173 318Z" fill="white" stroke="black"/>
<path d="M270 342C169.2 367.6 68 340.667 30 324C-18.6667 387.333 -117.8 516.6 -125 527C-134 540 -90 730 -90 742C-90 751.6 479.333 675.333 764 636L1110 546C1123.67 480.667 1147 353.6 1131 368C1111 386 1053 367 1025 368C997 369 845 298 776 292C707 286 596 356 517 330C438 304 396 310 270 342Z" fill="white" fill-opacity="0.5" stroke="black"/>
</svg>
